<svg width="100" height="33" viewBox="0 0 100 33" fill="none" xmlns="http://www.w3.org/2000/svg">
<path d="M38.8943 9.72876C40.8176 10.6662 41.7792 12.0787 41.7792 13.9703C41.7792 15.541 41.1184 16.8326 39.8017 17.8409C38.485 18.8492 36.8626 19.3492 34.9393 19.3492H25.6238V0.799957H34.2785C36.1376 0.799957 37.7157 1.29577 39.0127 2.28323C40.3096 3.27069 40.9557 4.51647 40.9557 6.02058C40.9557 7.52469 40.2653 8.79547 38.8844 9.72876H38.8943ZM34.2834 4.21649H29.9536V8.29548H34.2834C34.9541 8.29548 35.5113 8.09966 35.9601 7.71218C36.4089 7.32469 36.6357 6.83721 36.6357 6.2539C36.6357 5.67059 36.4138 5.18728 35.9749 4.79563C35.536 4.40814 34.9738 4.21232 34.2834 4.21232V4.21649ZM29.9536 15.9285H34.9393C35.6691 15.9285 36.2757 15.7202 36.759 15.3035C37.2423 14.8869 37.479 14.3619 37.479 13.7286C37.479 13.0953 37.2373 12.5953 36.759 12.1787C36.2806 11.762 35.6691 11.5537 34.9393 11.5537H29.9536V15.9285Z" fill="#DDD5CC"/>
<path d="M55.9572 7.6622V6.09977H60.0059V19.3492H55.9572V17.7868C54.744 19.0742 53.0427 19.72 50.8433 19.72C48.6438 19.72 46.9523 19.0492 45.4483 17.7076C43.9639 16.3493 43.2192 14.6869 43.2192 12.7245C43.2192 10.7621 43.9639 9.12882 45.4483 7.77054C46.9523 6.41226 48.7523 5.72894 50.8433 5.72894C53.0378 5.72894 54.744 6.37476 55.9572 7.6622ZM48.491 15.4286C49.3046 16.116 50.3403 16.4618 51.5978 16.4618C52.8553 16.4618 53.886 16.116 54.7046 15.4286C55.538 14.7203 55.9572 13.8203 55.9572 12.7245C55.9572 11.6287 55.538 10.7371 54.7046 10.0496C53.8909 9.34547 52.8553 8.99132 51.5978 8.99132C50.3403 8.99132 49.3096 9.34547 48.491 10.0496C47.6773 10.7371 47.268 11.6329 47.268 12.7245C47.268 13.8161 47.6773 14.7203 48.491 15.4286Z" fill="#DDD5CC"/>
<path d="M67.0875 19.3451H63.0388V0H67.0875V19.3451Z" fill="#DDD5CC"/>
<path d="M74.174 19.3451H70.1252V0H74.174V19.3451Z" fill="#DDD5CC"/>
<path d="M79.7464 4.39236C79.0757 4.39236 78.4987 4.18404 78.0056 3.76739C77.5124 3.35074 77.2659 2.86326 77.2659 2.29662C77.2659 1.72997 77.5124 1.23416 78.0056 0.813346C78.4987 0.388364 79.0757 0.175873 79.7464 0.175873C80.4171 0.175873 81.0286 0.388364 81.5168 0.813346C82.0099 1.23833 82.2565 1.72997 82.2565 2.29662C82.2565 2.86326 82.0099 3.35074 81.5168 3.76739C81.0236 4.18404 80.4368 4.39236 79.7464 4.39236ZM81.7831 19.2334H77.7393V5.98397H81.7831V19.2334Z" fill="#DDD5CC"/>
<path d="M94.0674 5.61228C95.8033 5.61228 97.2137 6.09976 98.3035 7.07056C99.4328 8.05802 99.9999 9.4038 99.9999 11.0996V19.2326H95.9512V11.5204C95.9512 10.6538 95.675 9.98294 95.1227 9.50796C94.5704 9.02881 93.811 8.79132 92.8493 8.79132C91.7841 8.79132 90.9409 9.07048 90.3244 9.62462C89.708 10.1829 89.3973 10.9996 89.3973 12.0745V19.2284H85.3535V5.97894H89.3973V7.46221C90.3589 6.22476 91.9173 5.60812 94.0723 5.60812L94.0674 5.61228Z" fill="#DDD5CC"/>
<path d="M5.0842 30.4863H4.06832L0.433838 22.1533H1.50396L4.57626 29.378L7.64855 22.1533H8.71868L5.0842 30.4863Z" fill="#DDD5CC"/>
<path d="M12.2545 24.3907C13.3049 24.3907 14.1482 24.7032 14.7745 25.3323C15.4205 25.9531 15.746 26.6864 15.746 27.5364C15.746 27.5781 15.7361 27.6989 15.7164 27.9072H9.53238C9.62608 28.503 9.9269 28.978 10.4348 29.3363C10.9428 29.6946 11.574 29.8738 12.3384 29.8738C13.4085 29.8738 14.163 29.5363 14.6068 28.8613L15.4255 29.2655C15.1148 29.6946 14.6907 30.028 14.1482 30.2696C13.6058 30.5113 12.9992 30.6321 12.3236 30.6321C11.214 30.6321 10.3116 30.3404 9.61622 29.753C8.92089 29.1655 8.57568 28.4197 8.57568 27.5156C8.57568 26.6114 8.92088 25.8781 9.60635 25.2907C10.2918 24.6948 11.1746 24.399 12.2545 24.399V24.3907ZM12.2545 25.1532C11.5198 25.1532 10.9083 25.3365 10.4151 25.699C9.92197 26.0615 9.62608 26.5448 9.53238 27.1406H14.7893C14.6857 26.5073 14.3997 26.0156 13.9312 25.6781C13.443 25.3281 12.8858 25.1532 12.2545 25.1532Z" fill="#DDD5CC"/>
<path d="M20.5294 24.3907C21.3726 24.3907 22.0483 24.6115 22.5463 25.0532C23.0444 25.4948 23.291 26.0865 23.291 26.8323V30.4863H22.3589V26.8323C22.3589 26.2989 22.1913 25.8865 21.8609 25.5948C21.5255 25.3032 21.057 25.1532 20.4455 25.1532C19.7403 25.1532 19.1831 25.3407 18.7738 25.7115C18.3645 26.0865 18.1623 26.6364 18.1623 27.3656V30.4863H17.2302V24.5323H18.1623V25.4615C18.6899 24.749 19.479 24.3907 20.5294 24.3907Z" fill="#DDD5CC"/>
<path d="M28.8291 24.5324V25.2948H26.8023V28.903C26.8023 29.228 26.8763 29.4613 27.0291 29.5988C27.1771 29.7363 27.4039 29.8113 27.7048 29.8113C28.0056 29.8113 28.3804 29.8113 28.8341 29.7947V30.4863C27.828 30.6113 27.0834 30.553 26.6001 30.303C26.1168 30.053 25.8752 29.5863 25.8752 28.903V25.2948H24.3958V24.5324H25.8752V23.1033L26.8072 22.8658V24.5324H28.8341H28.8291Z" fill="#DDD5CC"/>
<path d="M35.3384 27.6531V24.5324H36.2705V30.4863H35.3384V29.5572C34.8108 30.2696 34.0217 30.628 32.9713 30.628C32.1281 30.628 31.4524 30.4071 30.9544 29.9655C30.4563 29.5238 30.2097 28.9322 30.2097 28.1864V24.5324H31.1418V28.1864C31.1418 28.7197 31.3094 29.1322 31.6398 29.4238C31.9752 29.7155 32.4437 29.8655 33.0552 29.8655C33.7604 29.8655 34.3176 29.678 34.7269 29.3072C35.1362 28.9322 35.3384 28.3822 35.3384 27.6531Z" fill="#DDD5CC"/>
<path d="M39.1704 24.5324V25.5198C39.6043 24.799 40.3441 24.4365 41.3945 24.4365V25.199C40.7189 25.199 40.1764 25.3657 39.772 25.6948C39.3676 26.024 39.1654 26.5198 39.1654 27.1781V30.4863H38.2334V24.5324H39.1654H39.1704Z" fill="#DDD5CC"/>
<path d="M45.4972 24.3907C46.5476 24.3907 47.3909 24.7032 48.0172 25.3323C48.6632 25.9531 48.9887 26.6864 48.9887 27.5364C48.9887 27.5781 48.9788 27.6989 48.9591 27.9072H42.7751C42.8688 28.503 43.1696 28.978 43.6775 29.3363C44.1855 29.6946 44.8167 29.8738 45.5811 29.8738C46.6512 29.8738 47.4057 29.5363 47.8495 28.8613L48.6681 29.2655C48.3575 29.6946 47.9334 30.028 47.3909 30.2696C46.8484 30.5113 46.2419 30.6321 45.5663 30.6321C44.4567 30.6321 43.5542 30.3404 42.8589 29.753C42.1636 29.1655 41.8184 28.4197 41.8184 27.5156C41.8184 26.6114 42.1636 25.8781 42.849 25.2907C43.5345 24.6948 44.4172 24.399 45.4972 24.399V24.3907ZM45.4972 25.1532C44.7624 25.1532 44.1509 25.3365 43.6578 25.699C43.1646 26.0615 42.8688 26.5448 42.7751 27.1406H48.032C47.9284 26.5073 47.6424 26.0156 47.1739 25.6781C46.6857 25.3281 46.1284 25.1532 45.4972 25.1532Z" fill="#DDD5CC"/>
<path d="M58.7434 30.6279C57.2393 30.6279 56.0064 30.2113 55.0398 29.378C54.0634 28.5364 53.5752 27.5156 53.5752 26.3198C53.5752 25.124 54.0634 24.1032 55.0398 23.2616C56.0064 22.4283 57.2442 22.0116 58.7434 22.0116C59.6458 22.0116 60.4743 22.195 61.2387 22.5658C61.9981 22.9366 62.5899 23.4324 63.014 24.0616L62.1411 24.4907C61.8304 23.9824 61.3718 23.5782 60.7603 23.2783C60.1488 22.9783 59.4781 22.8241 58.7434 22.8241C57.5056 22.8241 56.4995 23.1616 55.7302 23.8366C54.9511 24.5199 54.5615 25.349 54.5615 26.324C54.5615 27.2989 54.9511 28.1281 55.7302 28.8114C56.4995 29.4863 57.5056 29.8238 58.7434 29.8238C59.4781 29.8238 60.1488 29.6738 60.7603 29.3697C61.3718 29.0655 61.8304 28.6614 62.1411 28.1572L63.014 28.5739C62.6096 29.1988 62.0228 29.6988 61.2535 30.0738C60.4842 30.4488 59.6458 30.6321 58.7434 30.6321V30.6279Z" fill="#DDD5CC"/>
<path d="M70.4802 25.699V24.5324H71.4122V30.4863H70.4802V29.3197C69.8342 30.1946 68.8824 30.6279 67.6347 30.6279C66.6287 30.6279 65.7706 30.328 65.0556 29.7238C64.3504 29.1197 64.0002 28.3822 64.0002 27.5114C64.0002 26.6406 64.3504 25.899 65.0556 25.299C65.7706 24.6948 66.6287 24.3949 67.6347 24.3949C68.8824 24.3949 69.8342 24.8323 70.4802 25.7031V25.699ZM65.7312 29.1863C66.2687 29.6405 66.9246 29.8655 67.7038 29.8655C68.4829 29.8655 69.1388 29.6405 69.6763 29.1863C70.2139 28.7197 70.4802 28.1572 70.4802 27.5072C70.4802 26.8573 70.2139 26.2948 69.6763 25.8406C69.1388 25.3782 68.4829 25.149 67.7038 25.149C66.9246 25.149 66.2687 25.3782 65.7312 25.8406C65.1937 26.2948 64.9274 26.8489 64.9274 27.5072C64.9274 28.1655 65.1937 28.7155 65.7312 29.1863Z" fill="#DDD5CC"/>
<path d="M77.1571 24.3907C78.1631 24.3907 79.0163 24.6907 79.7215 25.2948C80.4365 25.899 80.7916 26.6364 80.7916 27.5072C80.7916 28.378 80.4365 29.1197 79.7215 29.7196C79.0163 30.3238 78.1631 30.6238 77.1571 30.6238C75.9095 30.6238 74.9577 30.1863 74.3117 29.3155V32.8653H73.3796V24.5323H74.3117V25.699C74.9577 24.824 75.9095 24.3907 77.1571 24.3907ZM75.1155 29.1863C75.653 29.6405 76.3089 29.8655 77.0881 29.8655C77.8673 29.8655 78.5231 29.6405 79.0607 29.1863C79.5982 28.7197 79.8645 28.1572 79.8645 27.5072C79.8645 26.8573 79.5982 26.2948 79.0607 25.8406C78.5231 25.3781 77.8673 25.149 77.0881 25.149C76.3089 25.149 75.653 25.3781 75.1155 25.8406C74.578 26.2948 74.3117 26.8489 74.3117 27.5072C74.3117 28.1655 74.578 28.7155 75.1155 29.1863Z" fill="#DDD5CC"/>
<path d="M83.4843 22.6991C83.4843 22.8574 83.4202 22.9949 83.287 23.1032C83.1539 23.2116 82.9961 23.2699 82.8087 23.2699C82.6213 23.2699 82.4585 23.2157 82.3303 23.1032C82.1972 22.9907 82.1331 22.8574 82.1331 22.6991C82.1331 22.5408 82.1972 22.4074 82.3303 22.2949C82.4635 22.1824 82.6213 22.1283 82.8087 22.1283C82.9961 22.1283 83.1539 22.1824 83.287 22.2949C83.4202 22.4074 83.4843 22.5408 83.4843 22.6991ZM83.2722 30.4863H82.3402V24.5323H83.2722V30.4863Z" fill="#DDD5CC"/>
<path d="M88.978 24.5324V25.2948H86.9512V28.903C86.9512 29.228 87.0252 29.4613 87.1781 29.5988C87.326 29.7363 87.5529 29.8113 87.8537 29.8113C88.1545 29.8113 88.5293 29.8113 88.983 29.7947V30.4863C87.977 30.6113 87.2323 30.553 86.749 30.303C86.2658 30.053 86.0241 29.5863 86.0241 28.903V25.2948H84.5447V24.5324H86.0241V23.1033L86.9561 22.8658V24.5324H88.983H88.978Z" fill="#DDD5CC"/>
<path d="M96.163 25.699V24.5324H97.0951V30.4863H96.163V29.3197C95.517 30.1946 94.5653 30.6279 93.3176 30.6279C92.3116 30.6279 91.4535 30.328 90.7384 29.7238C90.0332 29.1197 89.6831 28.3822 89.6831 27.5114C89.6831 26.6406 90.0332 25.899 90.7384 25.299C91.4535 24.6948 92.3116 24.3949 93.3176 24.3949C94.5653 24.3949 95.517 24.8323 96.163 25.7031V25.699ZM91.414 29.1863C91.9516 29.6405 92.6075 29.8655 93.3866 29.8655C94.1658 29.8655 94.8217 29.6405 95.3592 29.1863C95.8967 28.7197 96.163 28.1572 96.163 27.5072C96.163 26.8573 95.8967 26.2948 95.3592 25.8406C94.8217 25.3782 94.1658 25.149 93.3866 25.149C92.6075 25.149 91.9516 25.3782 91.414 25.8406C90.8765 26.2948 90.6102 26.8489 90.6102 27.5072C90.6102 28.1655 90.8765 28.7155 91.414 29.1863Z" fill="#DDD5CC"/>
<path d="M99.9948 30.4863H99.0627V21.795H99.9948V30.4863Z" fill="#DDD5CC"/>
<path d="M17.6694 5.10813V15.7285H16.0617V5.89143L11.7812 7.97885V15.7285H10.1686V8.76631L5.88815 10.8537V15.7285H4.2805V11.9412V9.40796V4.41649H5.88815H10.1686H11.7812H14.5133L16.0617 3.66236L17.6694 2.8749L21.9302 0.795807H17.6694H16.0617H11.7812H10.1686H5.88815H4.2805H0V4.41649V15.7285V19.345V19.3492H21.9548V19.345V15.7285V3.01656L17.6694 5.10813Z" fill="#FF5C00"/>
</svg>
