<svg width="50" height="50" viewBox="0 0 50 50" fill="none" xmlns="http://www.w3.org/2000/svg">
<g clip-path="url(#clip0_261_184)">
<path d="M47.0274 29.3495C48.4205 28.1723 50 26.8384 50 24.999C50 23.1596 48.4199 21.8264 47.0281 20.6493C46.1453 19.9034 45.2328 19.1351 45.0247 18.4924C44.7989 17.7965 45.0906 16.595 45.3704 15.4343C45.8109 13.614 46.2664 11.7323 45.2256 10.2991C44.1722 8.85531 42.1445 8.7019 40.3537 8.56701C39.1687 8.47751 37.95 8.38532 37.3727 7.96523C36.8098 7.55504 36.3502 6.4325 35.9071 5.3463C35.2225 3.67147 34.4469 1.77338 32.7273 1.21515C31.0695 0.676575 29.4354 1.68133 27.8593 2.65427C26.827 3.289 25.7592 3.94663 25 3.94663C24.2408 3.94663 23.173 3.28829 22.1401 2.65427C20.56 1.68119 18.93 0.67912 17.2729 1.21515C15.5525 1.77338 14.7777 3.67091 14.0936 5.34574C13.6492 6.43208 13.1909 7.55518 12.6275 7.96537C12.0501 8.38546 10.8282 8.47765 9.64643 8.56715C7.85565 8.69879 5.8279 8.85546 4.7745 10.3C3.73369 11.7299 4.18927 13.6116 4.62971 15.4352C4.91024 16.5959 5.20123 17.7973 4.97528 18.4933C4.76729 19.1332 3.85614 19.9048 2.97256 20.6501C1.57868 21.8269 0 23.1607 0 24.9996C0 26.8384 1.58009 28.1729 2.97256 29.35C3.85472 30.0953 4.76729 30.8642 4.97528 31.5062C5.20109 32.2027 4.90939 33.4036 4.62971 34.5643C4.18927 36.3846 3.73369 38.2663 4.7745 39.6995C5.8279 41.144 7.85565 41.2974 9.64643 41.4323C10.8315 41.5218 12.0507 41.6147 12.6282 42.0341C13.1911 42.4442 13.6499 43.5668 14.0937 44.6537C14.7784 46.3285 15.5534 48.2259 17.2736 48.7848C17.583 48.8854 17.9062 48.9363 18.2315 48.9356C19.5588 48.9356 20.865 48.1298 22.1408 47.3463C23.1739 46.7103 24.2417 46.0527 25.0007 46.0527C25.7597 46.0527 26.8277 46.711 27.8606 47.3463C29.4407 48.3174 31.0721 49.3214 32.7271 48.7848C34.4475 48.2259 35.223 46.3285 35.907 44.6537C36.3507 43.5674 36.8096 42.4442 37.3731 42.0341C37.9498 41.6147 39.1718 41.5225 40.3529 41.433C42.1442 41.3013 44.1746 41.1447 45.2248 39.7002C46.2656 38.2695 45.81 36.3886 45.3703 34.565C45.0892 33.4037 44.7988 32.2028 45.0246 31.5069C45.2327 30.8662 46.1453 30.0946 47.0274 29.3495ZM42.8363 30.7945C42.409 32.1112 42.7778 33.6333 43.134 35.1068C43.4361 36.3577 43.7792 37.7718 43.365 38.3407C42.941 38.9226 41.4755 39.0332 40.1825 39.1306C38.6802 39.2445 37.1264 39.3611 36.0204 40.1662C34.9268 40.9616 34.3421 42.3935 33.7767 43.7773C33.2822 44.9881 32.7233 46.3601 32.0182 46.5893C31.3762 46.7947 30.151 46.0442 29.0713 45.3792C27.7599 44.5754 26.4116 43.7425 25 43.7425C23.5884 43.7425 22.2349 44.5734 20.932 45.3779C19.8524 46.0429 18.6277 46.7927 17.9845 46.588C17.2814 46.3589 16.7211 44.9868 16.226 43.7761C15.6611 42.3935 15.0759 40.9603 13.9829 40.165C12.8769 39.3598 11.3224 39.2432 9.81935 39.1287C8.527 39.0305 7.06143 38.9207 6.63753 38.3387C6.22409 37.7691 6.56711 36.3538 6.86928 35.1041C7.22545 33.6306 7.5935 32.1079 7.16691 30.7925C6.75616 29.5279 5.58682 28.5417 4.45976 27.5877C3.44977 26.7318 2.30432 25.7666 2.30432 24.997C2.30432 24.2274 3.4492 23.2603 4.45919 22.4071C5.58823 21.4531 6.75616 20.4669 7.16706 19.2015C7.59435 17.8848 7.22559 16.3633 6.86942 14.8905C6.56726 13.6396 6.22423 12.2248 6.63767 11.6559C7.06172 11.074 8.52714 10.9634 9.81949 10.866C11.3225 10.752 12.8769 10.6355 13.983 9.82967C15.0759 9.03432 15.6612 7.60312 16.2261 6.21928C16.7212 5.00851 17.2795 3.63584 17.9852 3.40735C18.0648 3.38289 18.1475 3.37087 18.2308 3.37186C18.9102 3.37186 19.9775 4.03019 20.9301 4.61741C22.2356 5.42124 23.5859 6.25208 24.9975 6.25208C26.409 6.25208 27.7599 5.42577 29.0674 4.61868C30.1471 3.95313 31.367 3.2019 32.0155 3.40862C32.7179 3.63711 33.2788 5.00978 33.774 6.22041C34.3396 7.60298 34.9241 9.0356 36.0171 9.8308C37.1231 10.6366 38.6776 10.7526 40.1806 10.8671C41.473 10.9652 42.9386 11.0758 43.3625 11.6571C43.7759 12.2266 43.4336 13.642 43.1307 14.8922C42.7745 16.365 42.4065 17.8878 42.8331 19.2032C43.2438 20.4686 44.4132 21.4548 45.5409 22.4088C46.5509 23.2646 47.6958 24.2291 47.6958 24.9987C47.6958 25.7683 46.5509 26.7355 45.5404 27.5894C44.4111 28.5435 43.2438 29.5297 42.8363 30.7945Z" fill="#FF5C00"/>
<path d="M30.28 17.7556L22.9143 25.1213L19.7199 21.9269C18.2407 20.4485 15.8432 20.449 14.3648 21.9282C12.8864 23.4073 12.8869 25.8048 14.3661 27.2833L20.2374 33.1546C21.716 34.6327 24.1126 34.6327 25.5912 33.1546L35.6338 23.1086C37.1231 21.6413 37.1411 19.2444 35.6737 17.755C34.2063 16.2657 31.8095 16.2478 30.3202 17.7152C30.3067 17.7287 30.2933 17.7422 30.28 17.7556ZM34.0044 21.4794L23.9617 31.522C23.3761 32.0829 22.4525 32.0829 21.8668 31.522L15.9949 25.6501C15.4168 25.0717 15.4171 24.134 15.9957 23.5559C16.5741 22.9778 17.5118 22.978 18.0899 23.5566L22.098 27.5653C22.5479 28.0148 23.277 28.0148 23.7267 27.5653L31.9076 19.3832C32.4759 18.7947 33.4136 18.7782 34.0022 19.3464C34.5909 19.9147 34.6073 20.8524 34.039 21.4411C34.0271 21.4534 34.015 21.4655 34.0025 21.4776L34.0044 21.4794Z" fill="#FF5C00"/>
</g>
<defs>
<clipPath id="clip0_261_184">
<rect width="50" height="50" fill="white"/>
</clipPath>
</defs>
</svg>
