<svg width="50" height="50" viewBox="0 0 50 50" fill="none" xmlns="http://www.w3.org/2000/svg">
<g clip-path="url(#clip0_261_229)">
<path d="M43.1401 36.6667C43.4048 35.2618 43.398 33.8191 43.1201 32.4167L46.9368 23.2059C46.9372 23.1998 46.9372 23.1937 46.9368 23.1876C47.5553 21.4943 48.4617 19.9206 49.616 18.5359C49.9032 18.2325 50.0187 17.8051 49.9235 17.3984L48.3585 10.6401C48.3399 10.5694 48.3118 10.5016 48.2751 10.4384C48.2685 10.4259 48.266 10.4109 48.2593 10.3992C48.2526 10.3876 48.2235 10.3592 48.2068 10.3376C48.1727 10.2876 48.1333 10.2415 48.0893 10.2001C48.0603 10.1797 48.03 10.1613 47.9985 10.1451C47.9578 10.1152 47.9146 10.0889 47.8693 10.0667C47.8065 10.043 47.741 10.027 47.6743 10.0192C47.6551 10.0192 47.6385 10.0067 47.6193 10.0051C47.4596 9.99441 47.3002 10.03 47.1601 10.1076C47.1476 10.1142 47.1326 10.1167 47.1201 10.1242H47.1118L41.2276 13.7967C40.8713 14.0174 40.6501 14.4027 40.6393 14.8217C40.4758 16.621 40.0019 18.3784 39.2385 20.0159V20.0251L37.331 24.6359C36.3948 24.1382 35.3925 23.7762 34.3543 23.5609C34.7473 20.8483 34.8918 18.1056 34.786 15.3667C36.3372 13.5055 37.0817 11.1023 36.8543 8.69006C36.3335 3.83339 31.9443 0.325891 31.7568 0.178391C31.475 -0.0435316 31.0828 -0.0602216 30.7832 0.136958C30.4835 0.334137 30.3437 0.700939 30.436 1.04756C30.8651 2.65922 30.4935 4.36006 27.3235 7.85756C25.8992 9.2328 25.4478 11.3326 26.181 13.1717C26.4613 13.8751 26.863 14.5239 27.3676 15.0884C27.166 16.3759 27.0076 17.5951 26.8985 18.7826C26.7105 20.7467 26.662 22.7216 26.7535 24.6926C26.0101 25.0956 25.3141 25.5806 24.6785 26.1384L20.6368 8.85506C20.6368 8.83756 20.6201 8.82506 20.6151 8.80923C20.6016 8.75366 20.582 8.69973 20.5568 8.64839L16.4285 1.02422C16.0153 0.261119 15.1425 -0.131018 14.2976 0.0668668C13.4527 0.264752 12.8448 1.00369 12.8135 1.87089L12.5001 10.5334C12.5003 10.5959 12.5073 10.6582 12.521 10.7192C12.521 10.7326 12.521 10.7442 12.521 10.7567L16.6443 28.3542C15.9938 28.3829 15.3481 28.4793 14.7176 28.6417L10.1818 17.6876C9.81809 16.8502 8.85342 16.4551 8.00681 16.7967L1.07431 19.6667C0.225862 20.0209 -0.177343 20.9937 0.171806 21.8442L6.32347 36.6842C2.71806 36.8735 -0.0805497 39.9001 0.0125087 43.5093C0.105567 47.1185 3.05643 49.9968 6.66681 50.0001H43.3335C45.7152 49.9655 47.8977 48.663 49.0586 46.583C50.2196 44.5031 50.1828 41.9617 48.962 39.9163C47.7412 37.8709 45.5219 36.6322 43.1401 36.6667ZM42.291 15.0967L45.7843 12.9167L44.5476 15.9034C44.3714 16.3287 44.5732 16.8163 44.9985 16.9926C45.4237 17.1688 45.9114 16.967 46.0876 16.5417L47.3243 13.5551L48.2501 17.5659C47.2596 18.7743 46.4459 20.1175 45.8335 21.5551C44.9647 21.9578 43.967 21.9787 43.082 21.6127C42.1971 21.2467 41.5057 20.5272 41.1751 19.6284C41.7604 18.1785 42.1361 16.6526 42.291 15.0967ZM40.3743 21.6392C40.9256 22.3132 41.641 22.8341 42.4518 23.1517C43.0963 23.4289 43.7895 23.5751 44.491 23.5817C44.6598 23.5811 44.8284 23.5708 44.996 23.5509L42.3368 29.9676C41.5406 28.212 40.3088 26.6891 38.7585 25.5434L40.3743 21.6392ZM28.9576 15.6876L33.1443 15.9434C33.1701 16.7217 33.161 17.5267 33.1351 18.3442C31.7404 18.4439 30.3388 18.3762 28.9601 18.1426C28.8551 18.1276 28.7526 18.1159 28.6485 18.1017C28.7318 17.3167 28.8335 16.5217 28.956 15.6876H28.9576ZM28.5601 8.97673C30.7726 6.53589 31.9193 4.65839 32.186 2.89339C33.7763 4.52968 34.8261 6.61469 35.1935 8.86673C35.3685 10.8272 34.7623 12.7775 33.5068 14.2934C31.8607 14.1934 30.2326 14.0934 28.6226 13.9934C27.9308 13.3467 27.5329 12.4457 27.5208 11.4987C27.5087 10.5518 27.8834 9.64093 28.5585 8.97673H28.5601ZM28.4968 19.7626L28.7385 19.7942C29.8123 19.9603 30.8962 20.0525 31.9826 20.0701C32.3276 20.0701 32.691 20.0426 33.0551 20.0142C32.9793 21.0867 32.8551 22.2067 32.6976 23.3642C32.4918 23.3534 32.2901 23.3334 32.0835 23.3334C30.8253 23.3356 29.5766 23.5506 28.3901 23.9692C28.3517 22.5661 28.3868 21.162 28.4951 19.7626H28.4968ZM22.051 29.5076L19.6668 19.3517C19.5553 18.9111 19.1114 18.6411 18.6689 18.7447C18.2264 18.8484 17.9485 19.2875 18.0443 19.7317L20.1868 28.8726C19.5977 28.6619 18.9892 28.5103 18.3701 28.4201L14.7126 12.8117C15.225 13.045 15.7813 13.166 16.3443 13.1667C16.3968 13.1667 16.4526 13.1592 16.506 13.1567L17.0951 15.6726C17.1586 15.967 17.3761 16.2043 17.6639 16.2932C17.9518 16.382 18.2652 16.3086 18.4836 16.1012C18.702 15.8938 18.7915 15.5846 18.7176 15.2926L18.1276 12.7751C18.693 12.5248 19.1917 12.1451 19.5835 11.6667L23.3018 27.5659C22.8189 28.1682 22.3998 28.8189 22.051 29.5076ZM16.9593 11.4242C15.8935 11.6309 14.8054 11.1952 14.1768 10.3101L14.2826 7.37506C14.5726 7.42921 14.8668 7.4571 15.1618 7.45839C15.4467 7.45959 15.7308 7.42799 16.0085 7.36422C16.5706 7.21659 17.0965 6.95507 17.5535 6.59589L18.9568 9.18589C18.7896 10.2605 18.0078 11.1372 16.9593 11.4259V11.4242ZM14.6768 1.68922C14.7903 1.66293 14.9075 1.71538 14.9635 1.81756L16.7501 5.12173C16.4278 5.4133 16.043 5.62711 15.6251 5.74673C15.1981 5.82511 14.7587 5.8043 14.341 5.68589L14.4768 1.93089C14.4813 1.81445 14.5633 1.71545 14.6768 1.68922ZM8.64597 18.3334L9.28264 19.8717L6.19931 21.1484C5.83377 21.3019 5.62699 21.6917 5.70486 22.0804C5.78273 22.4691 6.12368 22.7492 6.52014 22.7501C6.62963 22.7498 6.73803 22.7283 6.83931 22.6867L9.92264 21.4092L10.5601 22.9492L9.01764 23.5884C8.65001 23.7405 8.44121 24.1313 8.51908 24.5215C8.59695 24.9117 8.93978 25.1924 9.33764 25.1917C9.44684 25.1913 9.55494 25.1698 9.65597 25.1284L11.1985 24.4892L11.836 26.0292L8.75014 27.3084C8.38251 27.4605 8.17371 27.8513 8.25158 28.2415C8.32945 28.6317 8.67228 28.9124 9.07014 28.9117C9.17935 28.9114 9.28746 28.8899 9.38847 28.8484L12.4718 27.5717L13.146 29.1992C10.4305 30.4387 8.43921 32.8623 7.75014 35.7667L1.71014 21.2034L8.64597 18.3334ZM43.3335 48.3334H6.66681C3.90538 48.3334 1.66681 46.0948 1.66681 43.3334C1.66681 40.572 3.90538 38.3334 6.66681 38.3334C7.14966 38.3318 7.63011 38.4014 8.09264 38.5401C8.34251 38.6155 8.61331 38.5696 8.82428 38.4159C9.03526 38.2622 9.16204 38.0185 9.16681 37.7576C9.22609 34.7876 10.943 32.1008 13.6132 30.7993C16.2834 29.4977 19.4575 29.8005 21.8335 31.5834C22.0434 31.7397 22.3146 31.7882 22.5657 31.7145C22.8169 31.6408 23.0188 31.4534 23.111 31.2084C24.7391 26.8694 29.2388 24.3171 33.7984 25.1464C38.358 25.9757 41.6708 29.949 41.6668 34.5834C41.6684 35.5364 41.5266 36.4843 41.246 37.3951C41.1584 37.6784 41.228 37.987 41.4288 38.2053C41.6296 38.4236 41.9313 38.5187 42.221 38.4551C42.5864 38.3746 42.9593 38.3338 43.3335 38.3334C46.0949 38.3334 48.3335 40.572 48.3335 43.3334C48.3335 46.0948 46.0949 48.3334 43.3335 48.3334Z" fill="#FF5C00"/>
<path d="M32.2375 13.0834C32.4991 13.0843 32.7459 12.9625 32.9042 12.7542C33.9446 11.3461 34.3466 9.56612 34.0125 7.84753C33.9414 7.55367 33.7168 7.32136 33.4255 7.24048C33.1342 7.1596 32.8219 7.24284 32.6095 7.45799C32.3971 7.67314 32.3179 7.98645 32.4025 8.27669C32.602 9.49789 32.3043 10.7481 31.5759 11.7484C31.3865 12.0009 31.356 12.3387 31.4972 12.621C31.6383 12.9034 31.9269 13.0817 32.2425 13.0817L32.2375 13.0834Z" fill="#FF5C00"/>
<path d="M31.142 38.3334C30.5224 38.3353 29.9112 38.4778 29.3545 38.7501C27.8554 36.6988 25.0563 36.0979 22.8474 37.3531C20.6384 38.6084 19.722 41.3207 20.717 43.6584C20.848 43.9657 21.1497 44.1651 21.4837 44.1651C21.596 44.1654 21.7072 44.1427 21.8104 44.0984C22.0137 44.0118 22.1743 43.8479 22.2568 43.6429C22.3393 43.4378 22.337 43.2084 22.2504 43.0051C22.069 42.5822 21.9754 42.1269 21.9754 41.6668C21.9754 39.8258 23.4678 38.3334 25.3087 38.3334C26.6016 38.327 27.7792 39.0762 28.3212 40.2501C28.3392 40.2772 28.3587 40.3034 28.3795 40.3284C28.3927 40.357 28.4075 40.3848 28.4237 40.4118C28.4387 40.4301 28.4604 40.4384 28.477 40.4559C28.5161 40.4965 28.5594 40.5328 28.6062 40.5642C28.6478 40.5963 28.6925 40.6242 28.7395 40.6476C28.7879 40.6679 28.8382 40.6835 28.8895 40.6943C28.9408 40.7077 28.9933 40.7158 29.0462 40.7184C29.1545 40.7175 29.2619 40.6995 29.3645 40.6651C29.3868 40.661 29.4087 40.6557 29.4304 40.6493C29.4574 40.6318 29.4833 40.6126 29.5079 40.5918C29.5379 40.5784 29.5671 40.5634 29.5954 40.5467C30.0331 40.1928 30.5791 39.9998 31.142 40.0001C32.1164 40.0017 33.0011 40.5692 33.4087 41.4543C33.5997 41.8731 34.0941 42.0578 34.5129 41.8668C34.9317 41.6758 35.1164 41.1814 34.9254 40.7626C34.2468 39.2836 32.7693 38.3349 31.142 38.3334Z" fill="#FF5C00"/>
<path d="M14.737 32.5426C14.6112 32.5834 11.667 33.6018 11.667 36.6668C11.667 37.127 12.0401 37.5001 12.5003 37.5001C12.9606 37.5001 13.3337 37.127 13.3337 36.6668C13.4017 35.5043 14.1666 34.4986 15.2687 34.1226C15.7059 33.9758 15.9413 33.5023 15.7945 33.0651C15.6477 32.6279 15.1742 32.3925 14.737 32.5393V32.5426Z" fill="#FF5C00"/>
<path d="M26.4645 31.6418C26.5307 31.6586 26.5987 31.667 26.667 31.6668C27.0489 31.6664 27.3817 31.4064 27.4745 31.0359C27.8581 29.4798 29.2356 28.3729 30.8378 28.3334C31.2981 28.3323 31.6702 27.9582 31.6691 27.498C31.6679 27.0378 31.2939 26.6656 30.8337 26.6668C28.4651 26.6982 26.4182 28.3292 25.8587 30.6309C25.7468 31.0773 26.0181 31.5299 26.4645 31.6418Z" fill="#FF5C00"/>
</g>
<defs>
<clipPath id="clip0_261_229">
<rect width="50" height="50" fill="white"/>
</clipPath>
</defs>
</svg>
