<svg width="50" height="50" viewBox="0 0 50 50" fill="none" xmlns="http://www.w3.org/2000/svg">
<g clip-path="url(#clip0_261_172)">
<path d="M35.1586 9.56216C31.3744 6.48562 26.4142 5.30307 21.5486 6.31701C15.2261 7.63498 10.2281 12.8516 9.13253 19.219C8.17123 24.8037 10.0946 30.1073 13.8582 33.7106C16.2843 36.0334 17.6759 39.2656 17.6759 42.5782V45.6056C17.6759 48.0286 19.6473 50.0001 22.0704 50.0001H27.9298C30.3528 50.0001 32.3243 48.0286 32.3243 45.6056C32.3243 42.9288 32.3243 48.1107 32.3243 41.7062C32.3243 38.8684 33.6449 36.062 36.0432 33.8041C39.2651 30.7706 41.1129 26.494 41.1129 22.0705C41.1133 17.198 38.9427 12.6391 35.1586 9.56216ZM27.9298 47.07H22.0704C21.2628 47.07 20.6056 46.4127 20.6056 45.6052V44.0427H29.3946V45.6052C29.3946 46.4127 28.7373 47.07 27.9298 47.07ZM25.0001 31.1483L21.0256 25.1867L22.0704 24.1419L23.9644 26.0359C24.5362 26.6077 25.4639 26.6077 26.0358 26.0359L27.9298 24.1419L28.9746 25.1867L25.0001 31.1483ZM34.0352 31.6709C31.2047 34.3358 29.5773 37.6683 29.4091 41.113H26.4649V34.2325L31.9977 25.9332L34.8248 23.1062C35.397 22.534 35.397 21.6066 34.8248 21.0344C34.2526 20.4626 33.3252 20.4626 32.753 21.0344L30.8594 22.9284L28.9654 21.0344C28.3932 20.4626 27.4659 20.4626 26.8937 21.0344L24.9997 22.9284L23.1061 21.0344C22.5339 20.4626 21.6065 20.4626 21.0343 21.0344L19.1403 22.9284L17.2464 21.0344C16.6745 20.4626 15.7472 20.4626 15.175 21.0344C14.6028 21.6066 14.6028 22.534 15.175 23.1062L18.002 25.9332L23.5349 34.2325V41.113H20.5323C20.176 37.5306 18.5262 34.1241 15.8841 31.5942C12.66 28.5078 11.2516 24.1781 12.0195 19.7157C12.9182 14.4923 16.9877 10.2602 22.1459 9.18489C26.1441 8.35138 30.2132 9.31764 33.31 11.8353C36.4071 14.3534 38.1832 18.0838 38.1832 22.0701C38.1836 25.7429 36.7104 29.1525 34.0352 31.6709Z" fill="#FF5C00"/>
<path d="M5.85935 22.0703C5.85935 21.2616 5.20361 20.6055 4.39451 20.6055H1.46484C0.656125 20.6055 0 21.2616 0 22.0703C0 22.8794 0.656125 23.5351 1.46484 23.5351H4.39451C5.20361 23.5351 5.85935 22.8794 5.85935 22.0703Z" fill="#FF5C00"/>
<path d="M48.5351 20.6055H45.6055C44.7964 20.6055 44.1406 21.2616 44.1406 22.0703C44.1406 22.8794 44.7964 23.5351 45.6055 23.5351H48.5351C49.3438 23.5351 50 22.8794 50 22.0703C50 21.2616 49.3438 20.6055 48.5351 20.6055Z" fill="#FF5C00"/>
<path d="M7.97217 10.5479L5.43502 9.08306C4.73465 8.67832 3.83858 8.91865 3.43422 9.6194C3.02987 10.3198 3.26981 11.2158 3.97018 11.6202L6.50733 13.085C7.2077 13.4894 8.10415 13.2498 8.50851 12.5491C8.91287 11.8483 8.67292 10.9526 7.97217 10.5479Z" fill="#FF5C00"/>
<path d="M46.0295 32.5206L43.4924 31.0557C42.7916 30.651 41.896 30.8913 41.4916 31.5917C41.0869 32.2924 41.3268 33.1881 42.0276 33.5929L44.5647 35.0577C45.2647 35.4621 46.1608 35.2225 46.5655 34.5214C46.9702 33.821 46.7303 32.9249 46.0295 32.5206Z" fill="#FF5C00"/>
<path d="M13.4772 4.73474C13.8819 5.4355 14.778 5.67506 15.4784 5.2707C16.1787 4.86635 16.4191 3.97028 16.0143 3.2699L14.5495 0.732759C14.1451 0.0320022 13.2491 -0.207941 12.5487 0.196415C11.8479 0.601152 11.608 1.49684 12.0123 2.1976L13.4772 4.73474Z" fill="#FF5C00"/>
<path d="M6.50733 31.0557L3.97018 32.5206C3.26981 32.9249 3.02987 33.821 3.43422 34.5214C3.83896 35.2225 4.73503 35.4621 5.43502 35.0577L7.97217 33.5929C8.67292 33.1881 8.91287 32.2924 8.50851 31.5917C8.10415 30.8913 7.20809 30.651 6.50733 31.0557Z" fill="#FF5C00"/>
<path d="M43.4924 13.0851L46.0295 11.6203C46.7303 11.2159 46.9702 10.3199 46.5655 9.61948C46.1612 8.91872 45.2655 8.67878 44.5647 9.08313L42.0276 10.548C41.3268 10.9527 41.0869 11.8484 41.4916 12.5492C41.896 13.2495 42.7916 13.4899 43.4924 13.0851Z" fill="#FF5C00"/>
<path d="M34.5213 5.2707C35.2213 5.67506 36.1174 5.43588 36.5221 4.73474L37.987 2.1976C38.3917 1.49684 38.1514 0.601152 37.451 0.196415C36.7503 -0.207941 35.8542 0.0320022 35.4498 0.732759L33.985 3.2699C33.5806 3.97028 33.8206 4.86635 34.5213 5.2707Z" fill="#FF5C00"/>
</g>
<defs>
<clipPath id="clip0_261_172">
<rect width="50" height="50" fill="white"/>
</clipPath>
</defs>
</svg>
