<svg width="50" height="50" viewBox="0 0 50 50" fill="none" xmlns="http://www.w3.org/2000/svg">
<path d="M44.3929 30.1967C41.398 28.5589 37.3067 27.3244 32.7531 26.6726C32.8503 26.3683 32.8382 26.0329 32.7058 25.728C32.4923 25.2366 32.008 24.919 31.472 24.919H29.6517V3.78892C29.6517 2.62173 28.702 1.67212 27.5348 1.67212H22.4651C21.2979 1.67212 20.3482 2.62173 20.3482 3.78892V24.919H18.5279C17.992 24.919 17.5077 25.2365 17.2941 25.7278C17.1617 26.0328 17.1495 26.3683 17.2468 26.6726C12.6931 27.3244 8.60186 28.5589 5.60703 30.1967C2.00283 32.1679 0.0976562 34.6006 0.0976562 37.2319C0.0976562 40.3277 2.78076 43.1769 7.65264 45.2545C12.2999 47.2365 18.4606 48.328 25 48.328C31.5394 48.328 37.7 47.2365 42.3472 45.2545C47.2191 43.1768 49.9023 40.3277 49.9023 37.2319C49.9023 34.6006 47.9972 32.1678 44.3929 30.1967ZM21.1783 26.5792C21.6367 26.5792 22.0084 26.2075 22.0084 25.7491V3.78892C22.0084 3.53716 22.2133 3.33228 22.4651 3.33228H27.5348C27.7866 3.33228 27.9915 3.53716 27.9915 3.78892V25.7491C27.9915 26.2075 28.3632 26.5792 28.8216 26.5792H30.7462L25.0026 32.7328C25.0024 32.7329 25.0014 32.7332 25.0001 32.7332L24.9953 32.7309L19.2537 26.5792H21.1783ZM23.7816 33.8636C24.0958 34.2002 24.5398 34.3933 25 34.3933C25.4601 34.3933 25.9041 34.2002 26.2183 33.8637L27.0113 33.0139C30.6646 33.1647 34.0187 33.7228 36.4893 34.5963C39.1127 35.5241 40.0476 36.566 40.0476 37.2318C40.0476 39.0109 34.3229 41.4924 25.0001 41.4924C15.6771 41.4924 9.95264 39.0109 9.95264 37.2318C9.95264 36.566 10.8873 35.524 13.5108 34.5963C15.9812 33.7228 19.3355 33.1647 22.9888 33.0139L23.7816 33.8636ZM41.696 43.7275C37.2499 45.6236 31.3206 46.6678 25 46.6678C18.6794 46.6678 12.75 45.6236 8.30381 43.7275C4.14385 41.9534 1.75781 39.5858 1.75781 37.2319C1.75781 33.1441 8.76523 29.3674 18.4804 28.1837L21.514 31.4341C14.8465 31.9138 8.29229 33.833 8.29229 37.2318C8.29229 39.0074 10.0998 40.5254 13.5193 41.6219C16.5979 42.6089 20.6751 43.1526 24.9999 43.1526C29.3247 43.1526 33.4018 42.6089 36.4804 41.6219C39.9 40.5254 41.7075 39.0075 41.7075 37.2318C41.7075 33.833 35.1533 31.9138 28.4857 31.4341L31.5193 28.1837C41.2347 29.3673 48.2422 33.144 48.2422 37.2319C48.2422 39.5858 45.8561 41.9534 41.696 43.7275ZM25 39.6368C26.1334 39.6368 31.7873 39.5208 31.7873 37.2318C31.7873 34.9428 26.1334 34.8268 25 34.8268C23.8666 34.8268 18.2126 34.9428 18.2126 37.2318C18.2126 39.5208 23.8666 39.6368 25 39.6368ZM25 36.487C27.5318 36.487 29.2262 36.9064 29.8935 37.2318C29.2262 37.5572 27.5317 37.9766 25 37.9766C22.4681 37.9766 20.7738 37.5572 20.1064 37.2318C20.7738 36.9064 22.4681 36.487 25 36.487Z" fill="#FF5C00"/>
</svg>
