<svg width="50" height="50" viewBox="0 0 50 50" fill="none" xmlns="http://www.w3.org/2000/svg">
<g clip-path="url(#clip0_261_205)">
<path d="M2.50026 26.6667C3.16341 26.6678 3.7997 26.4048 4.26859 25.9359C4.33359 25.8709 8.33359 21.8784 8.33359 21.8784L10.3861 23.9325C11.1676 24.7147 12.2279 25.1542 13.3336 25.1542C14.4393 25.1542 15.4996 24.7147 16.2811 23.9325L28.5078 11.7017L32.2261 15.4217C33.855 17.0479 36.493 17.0479 38.1219 15.4217L45.5653 7.96837L46.1836 8.58671C46.7343 9.13682 47.5549 9.3159 48.2847 9.04522C49.0145 8.77455 49.5198 8.10369 49.5786 7.32754L49.9953 1.96004V1.9517C50.0314 1.42547 49.8381 0.909327 49.4653 0.536187C49.0925 0.163047 48.5765 -0.0306266 48.0503 0.00503789L42.6778 0.421705C41.9019 0.477198 41.2298 0.980614 40.9584 1.70962C40.687 2.43863 40.8662 3.25898 41.4169 3.80837L42.0353 4.42837L35.1728 11.2942L31.4553 7.5742C30.6738 6.79206 29.6134 6.35259 28.5078 6.35259C27.4021 6.35259 26.3418 6.79206 25.5603 7.5742L13.3336 19.8059L11.2828 17.75C9.65406 16.1234 7.01563 16.1234 5.38693 17.75L0.741093 22.4084C0.0271112 23.1208 -0.187341 24.1932 0.197759 25.1254C0.58286 26.0576 1.49165 26.6659 2.50026 26.6667ZM1.91693 23.5834L6.56609 18.9242C7.03501 18.4548 7.67132 18.191 8.33484 18.191C8.99837 18.191 9.63467 18.4548 10.1036 18.9242L12.7444 21.5667C12.9007 21.7232 13.1128 21.8111 13.334 21.8111C13.5552 21.8111 13.7673 21.7232 13.9236 21.5667L26.7386 8.75004C27.7284 7.80421 29.2871 7.80421 30.2769 8.75004L33.9953 12.47C34.6548 13.1 35.6932 13.1 36.3528 12.47L43.8036 5.01504C44.1284 4.68972 44.1284 4.16286 43.8036 3.83754L42.5928 2.6267C42.5012 2.54173 42.4723 2.4087 42.5203 2.29337C42.5623 2.17085 42.675 2.08654 42.8044 2.08087L48.1736 1.6667C48.2156 1.66481 48.2563 1.68123 48.2853 1.7117C48.3183 1.74333 48.3359 1.78772 48.3336 1.83337L47.9169 7.20004C47.9078 7.32717 47.8254 7.43731 47.706 7.48194C47.5867 7.52658 47.4522 7.49751 47.3619 7.40754L46.1544 6.19837C45.8236 5.88566 45.3061 5.88566 44.9753 6.19837L36.9428 14.2425C35.9522 15.1857 34.3958 15.1857 33.4053 14.2425L29.6869 10.5225C29.375 10.2085 28.9504 10.0324 28.5078 10.0334C28.0659 10.0329 27.6421 10.2086 27.3303 10.5217L15.1036 22.7542C14.1136 23.6996 12.5553 23.6996 11.5653 22.7542L9.51276 20.7C8.86202 20.05 7.80766 20.05 7.15693 20.7L3.08776 24.7625C2.76125 25.082 2.23927 25.082 1.91276 24.7625C1.75514 24.6094 1.6662 24.399 1.6662 24.1792C1.6662 23.9594 1.75514 23.749 1.91276 23.5959L1.91693 23.5834Z" fill="#FF5C00"/>
<path d="M33.3333 31.6667C33.3407 27.7427 30.6094 24.3452 26.7755 23.5092C22.9416 22.6731 19.0438 24.6251 17.4168 28.1959C15.7897 31.7667 16.8743 35.9888 20.0208 38.3334H20C19.012 38.329 18.1149 38.9094 17.714 39.8125C17.313 40.7155 17.4841 41.7701 18.15 42.5001C17.2833 43.4422 17.2833 44.8913 18.15 45.8334C17.4841 46.5634 17.313 47.618 17.714 48.521C18.1149 49.4241 19.012 50.0045 20 50.0001H30C30.988 50.0045 31.8851 49.4241 32.286 48.521C32.687 47.618 32.5159 46.5634 31.85 45.8334C32.7167 44.8913 32.7167 43.4422 31.85 42.5001C32.5159 41.7701 32.687 40.7155 32.286 39.8125C31.8851 38.9094 30.988 38.329 30 38.3334H29.9792C32.0873 36.7656 33.3308 34.294 33.3333 31.6667ZM30.8333 44.1667C30.8333 44.627 30.4602 45.0001 30 45.0001H20C19.5398 45.0001 19.1667 44.627 19.1667 44.1667C19.1667 43.7065 19.5398 43.3334 20 43.3334H30C30.4602 43.3334 30.8333 43.7065 30.8333 44.1667ZM30 48.3334H20C19.5398 48.3334 19.1667 47.9603 19.1667 47.5001C19.1667 47.0398 19.5398 46.6667 20 46.6667H30C30.4602 46.6667 30.8333 47.0398 30.8333 47.5001C30.8333 47.9603 30.4602 48.3334 30 48.3334ZM30 40.0001C30.4602 40.0001 30.8333 40.3732 30.8333 40.8334C30.8333 41.2937 30.4602 41.6667 30 41.6667H20C19.5398 41.6667 19.1667 41.2937 19.1667 40.8334C19.1667 40.3732 19.5398 40.0001 20 40.0001H30ZM18.3333 31.6667C18.3333 27.9848 21.3181 25.0001 25 25.0001C28.6819 25.0001 31.6667 27.9848 31.6667 31.6667C31.6667 35.3486 28.6819 38.3334 25 38.3334C21.3198 38.3293 18.3375 35.3469 18.3333 31.6667Z" fill="#FF5C00"/>
<path fill-rule="evenodd" clip-rule="evenodd" d="M25.0001 30.8334C24.5958 30.833 24.2501 30.5425 24.1801 30.1443C24.1102 29.746 24.3362 29.3551 24.7162 29.2169C25.0961 29.0788 25.5205 29.2333 25.7226 29.5834C25.8665 29.8509 26.1446 30.0188 26.4483 30.0218C26.752 30.0248 27.0332 29.8623 27.1824 29.5977C27.3315 29.3331 27.3249 29.0084 27.1651 28.7501C26.863 28.2431 26.3913 27.8594 25.8334 27.6667V27.5001C25.8334 27.0398 25.4603 26.6667 25.0001 26.6667C24.5399 26.6667 24.1668 27.0398 24.1668 27.5001V27.6534C23.0196 28.0575 22.3312 29.23 22.5373 30.4286C22.7434 31.6272 23.7839 32.5024 25.0001 32.5001C25.4044 32.5005 25.7501 32.791 25.8201 33.1892C25.89 33.5875 25.664 33.9784 25.2841 34.1166C24.9041 34.2547 24.4798 34.1002 24.2776 33.7501C24.0406 33.367 23.5421 33.2416 23.1521 33.4669C22.762 33.6923 22.6216 34.1868 22.8351 34.5834C23.1376 35.0907 23.61 35.4745 24.1684 35.6667V35.8334C24.1684 36.2937 24.5415 36.6667 25.0018 36.6667C25.462 36.6667 25.8351 36.2937 25.8351 35.8334V35.6801C26.9825 35.2759 27.671 34.103 27.4645 32.9041C27.2579 31.7053 26.2166 30.8303 25.0001 30.8334Z" fill="#FF5C00"/>
<path d="M41.6666 16.6668C38.0768 16.6628 34.8888 18.9608 33.7579 22.3679C32.6269 25.7749 33.8078 29.5232 36.6875 31.6668H36.6666C35.6786 31.6624 34.7816 32.2428 34.3806 33.1458C33.9797 34.0488 34.1508 35.1035 34.8166 35.8334C33.9499 36.7755 33.9499 38.2247 34.8166 39.1668C33.9499 40.1089 33.9499 41.558 34.8166 42.5001C33.9499 43.4422 33.9499 44.8913 34.8166 45.8334C34.1508 46.5634 33.9797 47.618 34.3806 48.521C34.7816 49.4241 35.6786 50.0045 36.6666 50.0001H46.6666C47.6547 50.0045 48.5517 49.4241 48.9527 48.521C49.3536 47.618 49.1825 46.5634 48.5166 45.8334C49.3833 44.8913 49.3833 43.4422 48.5166 42.5001C49.3833 41.558 49.3833 40.1089 48.5166 39.1668C49.3833 38.2247 49.3833 36.7755 48.5166 35.8334C49.1825 35.1035 49.3536 34.0488 48.9527 33.1458C48.5517 32.2428 47.6547 31.6624 46.6666 31.6668H46.645C49.5256 29.5239 50.7073 25.7752 49.5764 22.3677C48.4455 18.9602 45.2569 16.662 41.6666 16.6668ZM47.5 37.5001C47.5 37.9603 47.1269 38.3334 46.6666 38.3334H36.6666C36.2064 38.3334 35.8333 37.9603 35.8333 37.5001C35.8333 37.0399 36.2064 36.6668 36.6666 36.6668H46.6666C47.1269 36.6668 47.5 37.0399 47.5 37.5001ZM47.5 40.8334C47.5 41.2937 47.1269 41.6668 46.6666 41.6668H36.6666C36.2064 41.6668 35.8333 41.2937 35.8333 40.8334C35.8333 40.3732 36.2064 40.0001 36.6666 40.0001H46.6666C47.1269 40.0001 47.5 40.3732 47.5 40.8334ZM47.5 44.1668C47.5 44.627 47.1269 45.0001 46.6666 45.0001H36.6666C36.2064 45.0001 35.8333 44.627 35.8333 44.1668C35.8333 43.7065 36.2064 43.3334 36.6666 43.3334H46.6666C47.1269 43.3334 47.5 43.7065 47.5 44.1668ZM46.6666 48.3334H36.6666C36.2064 48.3334 35.8333 47.9603 35.8333 47.5001C35.8333 47.0399 36.2064 46.6668 36.6666 46.6668H46.6666C47.1269 46.6668 47.5 47.0399 47.5 47.5001C47.5 47.9603 47.1269 48.3334 46.6666 48.3334ZM46.6666 33.3334C47.1269 33.3334 47.5 33.7065 47.5 34.1668C47.5 34.627 47.1269 35.0001 46.6666 35.0001H36.6666C36.2064 35.0001 35.8333 34.627 35.8333 34.1668C35.8333 33.7065 36.2064 33.3334 36.6666 33.3334H46.6666ZM41.6666 31.6668C37.9847 31.6668 35 28.682 35 25.0001C35 21.3182 37.9847 18.3334 41.6666 18.3334C45.3485 18.3334 48.3333 21.3182 48.3333 25.0001C48.3292 28.6803 45.3468 31.6626 41.6666 31.6668Z" fill="#FF5C00"/>
<path fill-rule="evenodd" clip-rule="evenodd" d="M41.6666 24.1667C41.2623 24.1663 40.9166 23.8757 40.8467 23.4775C40.7767 23.0793 41.0027 22.6883 41.3827 22.5502C41.7626 22.412 42.187 22.5665 42.3891 22.9167C42.6261 23.2997 43.1246 23.4251 43.5146 23.1998C43.9047 22.9745 44.0451 22.48 43.8316 22.0833C43.5299 21.576 43.058 21.1922 42.4999 21V20.8333C42.4999 20.3731 42.1268 20 41.6666 20C41.2064 20 40.8333 20.3731 40.8333 20.8333V20.9867C39.6862 21.3907 38.9977 22.5632 39.2038 23.7618C39.4099 24.9604 40.4504 25.8356 41.6666 25.8333C42.0709 25.8337 42.4166 26.1243 42.4866 26.5225C42.5565 26.9207 42.3305 27.3117 41.9506 27.4498C41.5706 27.588 41.1463 27.4335 40.9441 27.0833C40.7071 26.7003 40.2086 26.5749 39.8186 26.8002C39.4285 27.0255 39.2881 27.52 39.5016 27.9167C39.8037 28.4243 40.2762 28.8082 40.8349 29V29.1667C40.8349 29.6269 41.208 30 41.6683 30C42.1285 30 42.5016 29.6269 42.5016 29.1667V29.0133C43.649 28.6092 44.3375 27.4362 44.131 26.2374C43.9244 25.0385 42.8831 24.1635 41.6666 24.1667Z" fill="#FF5C00"/>
<path d="M3.35422 45.0001H3.33339C1.95268 45.0001 0.833388 46.1194 0.833388 47.5001C0.833388 48.8808 1.95268 50.0001 3.33339 50.0001H13.3334C14.7141 50.0001 15.8334 48.8808 15.8334 47.5001C15.8334 46.1194 14.7141 45.0001 13.3334 45.0001H13.3126C16.1926 42.854 17.3737 39.1041 16.2432 35.6949C15.1127 32.2858 11.9251 29.9845 8.33339 29.9845C4.74168 29.9845 1.55407 32.2858 0.423591 35.6949C-0.706887 39.1041 0.474143 42.854 3.35422 45.0001ZM13.3334 46.6667C13.7936 46.6667 14.1667 47.0398 14.1667 47.5001C14.1667 47.9603 13.7936 48.3334 13.3334 48.3334H3.33339C2.87315 48.3334 2.50006 47.9603 2.50006 47.5001C2.50006 47.0398 2.87315 46.6667 3.33339 46.6667H13.3334ZM8.33339 31.6667C12.0153 31.6667 15.0001 34.6515 15.0001 38.3334C15.0001 42.0153 12.0153 45.0001 8.33339 45.0001C4.65149 45.0001 1.66672 42.0153 1.66672 38.3334C1.67086 34.6532 4.6532 31.6709 8.33339 31.6667Z" fill="#FF5C00"/>
<path fill-rule="evenodd" clip-rule="evenodd" d="M8.3336 39.1667C8.73791 39.1671 9.08361 39.4577 9.15356 39.8559C9.2235 40.2541 8.99752 40.6451 8.61755 40.7832C8.23758 40.9214 7.81326 40.7669 7.6111 40.4167C7.46717 40.1493 7.18914 39.9813 6.88544 39.9783C6.58174 39.9753 6.30047 40.1378 6.15133 40.4024C6.00219 40.667 6.00881 40.9918 6.1686 41.25C6.47112 41.7573 6.94347 42.1411 7.50193 42.3334V42.5C7.50193 42.9603 7.87503 43.3334 8.33527 43.3334C8.7955 43.3334 9.1686 42.9603 9.1686 42.5V42.3467C10.316 41.9426 11.0045 40.7696 10.798 39.5707C10.5914 38.3719 9.55012 37.4969 8.3336 37.5C7.92929 37.4996 7.58359 37.2091 7.51365 36.8109C7.4437 36.4127 7.66968 36.0217 8.04965 35.8835C8.42962 35.7454 8.85395 35.8999 9.0561 36.25C9.20003 36.5175 9.47806 36.6855 9.78176 36.6884C10.0855 36.6914 10.3667 36.5289 10.5159 36.2643C10.665 35.9998 10.6584 35.675 10.4986 35.4167C10.1965 34.9097 9.72478 34.526 9.16693 34.3334V34.1667C9.16693 33.7065 8.79384 33.3334 8.3336 33.3334C7.87336 33.3334 7.50027 33.7065 7.50027 34.1667V34.32C6.35314 34.7241 5.66469 35.8966 5.87078 37.0952C6.07687 38.2938 7.1174 39.169 8.3336 39.1667Z" fill="#FF5C00"/>
</g>
<defs>
<clipPath id="clip0_261_205">
<rect width="50" height="50" fill="white"/>
</clipPath>
</defs>
</svg>
