<svg width="50" height="50" viewBox="0 0 50 50" fill="none" xmlns="http://www.w3.org/2000/svg">
<path d="M46.4218 44.2032L33.5155 31.25C36.3358 27.8472 37.7368 23.4888 37.4276 19.0801C37.1185 14.6713 35.1229 10.5511 31.8554 7.57517C28.5879 4.59926 24.2996 2.99641 19.8812 3.09953C15.4628 3.20266 11.2539 5.00384 8.12883 8.12896C5.00372 11.2541 3.20254 15.4629 3.09941 19.8813C2.99628 24.2997 4.59914 28.588 7.57504 31.8555C10.551 35.123 14.6712 37.1186 19.0799 37.4278C23.4887 37.7369 27.8471 36.3359 31.2499 33.5157L44.1562 46.4219C44.4504 46.7161 44.8494 46.8814 45.2655 46.8814C45.6816 46.8814 46.0807 46.7161 46.3749 46.4219C46.6691 46.1277 46.8344 45.7286 46.8344 45.3125C46.8344 44.8964 46.6691 44.4974 46.3749 44.2032H46.4218ZM6.24991 20.3125C6.24991 17.5312 7.07466 14.8124 8.61987 12.4998C10.1651 10.1873 12.3613 8.38483 14.9309 7.32047C17.5005 6.25612 20.328 5.97763 23.0559 6.52024C25.7837 7.06284 28.2894 8.40216 30.2561 10.3688C32.2228 12.3355 33.5621 14.8412 34.1047 17.5691C34.6473 20.2969 34.3688 23.1244 33.3045 25.694C32.2401 28.2636 30.4377 30.4599 28.1251 32.0051C25.8125 33.5503 23.0937 34.375 20.3124 34.375C16.5828 34.375 13.0059 32.8934 10.3687 30.2562C7.73149 27.619 6.24991 24.0421 6.24991 20.3125Z" fill="#FF5C00"/>
<path d="M31.25 20.3125C31.25 17.4117 30.0977 14.6297 28.0465 12.5785C25.9953 10.5273 23.2133 9.375 20.3125 9.375C19.8981 9.375 19.5007 9.53962 19.2076 9.83265C18.9146 10.1257 18.75 10.5231 18.75 10.9375C18.75 11.3519 18.9146 11.7493 19.2076 12.0424C19.5007 12.3354 19.8981 12.5 20.3125 12.5C22.3845 12.5 24.3716 13.3231 25.8368 14.7882C27.3019 16.2534 28.125 18.2405 28.125 20.3125C28.125 20.7269 28.2896 21.1243 28.5826 21.4174C28.8757 21.7104 29.2731 21.875 29.6875 21.875C30.1019 21.875 30.4993 21.7104 30.7924 21.4174C31.0854 21.1243 31.25 20.7269 31.25 20.3125Z" fill="#FF5C00"/>
</svg>
