<svg width="50" height="50" viewBox="0 0 50 50" fill="none" xmlns="http://www.w3.org/2000/svg">
<g clip-path="url(#clip0_261_221)">
<path d="M18.75 39.0625C18.75 39.2697 18.8323 39.4684 18.9788 39.615C19.1253 39.7615 19.324 39.8438 19.5312 39.8438H30.4688C30.676 39.8438 30.8747 39.7615 31.0212 39.615C31.1677 39.4684 31.25 39.2697 31.25 39.0625V31.25C31.2488 30.2144 30.8368 29.2216 30.1045 28.4893C29.3722 27.757 28.3794 27.345 27.3438 27.3438H27.1828C27.755 26.8906 28.172 26.2705 28.3758 25.5696C28.5796 24.8686 28.5602 24.1217 28.3203 23.4323C28.0803 22.7429 27.6317 22.1453 27.0368 21.7224C26.4418 21.2995 25.73 21.0723 25 21.0723C24.27 21.0723 23.5582 21.2995 22.9632 21.7224C22.3683 22.1453 21.9197 22.7429 21.6797 23.4323C21.4398 24.1217 21.4204 24.8686 21.6242 25.5696C21.828 26.2705 22.245 26.8906 22.8172 27.3438H22.6562C21.6206 27.345 20.6278 27.757 19.8955 28.4893C19.1632 29.2216 18.7512 30.2144 18.75 31.25V39.0625ZM25 22.6563C25.3863 22.6563 25.7639 22.7708 26.0851 22.9854C26.4063 23.2001 26.6566 23.5051 26.8045 23.862C26.9523 24.2189 26.991 24.6116 26.9156 24.9904C26.8402 25.3693 26.6542 25.7173 26.3811 25.9905C26.1079 26.2636 25.7599 26.4496 25.381 26.525C25.0022 26.6004 24.6095 26.5617 24.2526 26.4139C23.8957 26.266 23.5906 26.0157 23.376 25.6945C23.1614 25.3733 23.0469 24.9957 23.0469 24.6094C23.0469 24.0914 23.2527 23.5946 23.6189 23.2283C23.9852 22.8621 24.482 22.6563 25 22.6563ZM25.6945 32.6782L25 33.6328L24.3055 32.6782L25 30.5953L25.6945 32.6782ZM20.3125 31.25C20.3125 30.6284 20.5594 30.0323 20.999 29.5928C21.4385 29.1532 22.0346 28.9063 22.6562 28.9063H23.9156L22.6961 32.5657C22.6574 32.6831 22.6471 32.8082 22.6661 32.9304C22.6851 33.0526 22.7329 33.1686 22.8055 33.2688L24.368 35.4172C24.4404 35.517 24.5355 35.5981 24.6453 35.6541C24.7552 35.7101 24.8767 35.7392 25 35.7392C25.1233 35.7392 25.2448 35.7101 25.3547 35.6541C25.4645 35.5981 25.5596 35.517 25.632 35.4172L27.1945 33.2688C27.2671 33.1686 27.3149 33.0526 27.3339 32.9304C27.3529 32.8082 27.3426 32.6831 27.3039 32.5657L26.0844 28.9063H27.3438C27.9654 28.9063 28.5615 29.1532 29.001 29.5928C29.4406 30.0323 29.6875 30.6284 29.6875 31.25V38.2813H20.3125V31.25Z" fill="#FF5C00"/>
<path d="M30.4303 11.2061C30.3853 11.0675 30.3024 10.9441 30.191 10.8501C30.0796 10.7561 29.9441 10.6951 29.7998 10.6741L26.967 10.2624L25.703 7.69598C25.6311 7.57399 25.5287 7.47287 25.4058 7.40262C25.2829 7.33236 25.1437 7.29541 25.0022 7.29541C24.8606 7.29541 24.7215 7.33236 24.5986 7.40262C24.4757 7.47287 24.3732 7.57399 24.3014 7.69598L23.035 10.2624L20.2022 10.6741C20.0579 10.6951 19.9223 10.756 19.8109 10.85C19.6994 10.944 19.6164 11.0673 19.5714 11.2059C19.5264 11.3446 19.521 11.4931 19.556 11.6347C19.591 11.7762 19.6649 11.9052 19.7694 12.0069L21.8194 14.0046L21.335 16.8264C21.3104 16.9701 21.3264 17.1178 21.3814 17.2528C21.4363 17.3879 21.5279 17.5048 21.6459 17.5905C21.7638 17.6761 21.9034 17.7271 22.0488 17.7376C22.1941 17.7481 22.3396 17.7177 22.4686 17.6499L24.9998 16.3179L27.5334 17.646C27.6625 17.7138 27.8079 17.7442 27.9533 17.7337C28.0987 17.7232 28.2382 17.6722 28.3561 17.5866C28.4741 17.5009 28.5657 17.3839 28.6206 17.2489C28.6756 17.1139 28.6916 16.9662 28.667 16.8225L28.1826 14.0007L30.2342 12.0069C30.3383 11.905 30.4118 11.776 30.4465 11.6345C30.4811 11.493 30.4755 11.3446 30.4303 11.2061ZM26.7967 13.1725C26.706 13.2609 26.6381 13.37 26.5989 13.4905C26.5597 13.6109 26.5504 13.7391 26.5717 13.8639L26.8576 15.5296L25.3616 14.7436C25.2495 14.6848 25.1248 14.654 24.9983 14.654C24.8717 14.654 24.747 14.6848 24.635 14.7436L23.1405 15.5296L23.4264 13.8639C23.4478 13.7391 23.4384 13.6109 23.3992 13.4905C23.36 13.37 23.2921 13.2609 23.2014 13.1725L21.9912 11.9929L23.6639 11.7499C23.7893 11.7317 23.9083 11.6833 24.0108 11.6088C24.1133 11.5344 24.1961 11.4361 24.2522 11.3225L24.9998 9.80692L25.7475 11.3225C25.8036 11.4361 25.8864 11.5344 25.9889 11.6088C26.0914 11.6833 26.2104 11.7317 26.3358 11.7499L28.0084 11.9929L26.7967 13.1725Z" fill="#FF5C00"/>
<path d="M32.5306 19.2046C32.6053 19.33 32.714 19.4317 32.8441 19.4979C32.9742 19.5642 33.1204 19.5922 33.2658 19.5789L35.0306 19.4289L36.1556 20.7968C36.2288 20.8859 36.3209 20.9577 36.4252 21.007C36.5295 21.0563 36.6434 21.0819 36.7587 21.082C36.8187 21.0822 36.8785 21.0754 36.9369 21.0617C37.0788 21.0284 37.2086 20.9562 37.3115 20.853C37.4145 20.7499 37.4866 20.62 37.5197 20.4781L37.922 18.7539L39.5712 18.1078C39.7069 18.0546 39.8251 17.9644 39.9122 17.8476C39.9994 17.7308 40.0522 17.5919 40.0645 17.4466C40.0769 17.3014 40.0483 17.1556 39.9822 17.0257C39.916 16.8958 39.8148 16.787 39.69 16.7117L38.1736 15.7953L38.0689 14.0273C38.0607 13.8815 38.0118 13.7409 37.9278 13.6215C37.8438 13.5021 37.728 13.4086 37.5935 13.3516C37.459 13.2947 37.3113 13.2766 37.1671 13.2993C37.0228 13.3221 36.8879 13.3848 36.7775 13.4804L35.4384 14.6398L33.7244 14.1929C33.5832 14.156 33.4345 14.1594 33.2952 14.2026C33.1558 14.2459 33.0313 14.3273 32.9359 14.4376C32.8404 14.548 32.7778 14.6828 32.755 14.8269C32.7323 14.9711 32.7503 15.1187 32.8072 15.2531L33.4954 16.8851L32.5415 18.3773C32.4624 18.5003 32.4195 18.6431 32.4175 18.7894C32.4156 18.9357 32.4548 19.0795 32.5306 19.2046ZM35.0947 16.6585L34.8603 16.1062L35.44 16.2578C35.5626 16.289 35.6909 16.2902 35.8141 16.2614C35.9373 16.2326 36.0518 16.1745 36.1478 16.0921L36.6009 15.7015L36.6361 16.2992C36.6432 16.4261 36.6811 16.5493 36.7466 16.6582C36.812 16.7671 36.9031 16.8584 37.0119 16.9242L37.5251 17.2367L36.9673 17.4546C36.8493 17.5009 36.7443 17.5753 36.6614 17.6712C36.5785 17.7672 36.5202 17.8819 36.4915 18.0054L36.3556 18.5882L35.9751 18.1257C35.9018 18.0365 35.8096 17.9647 35.7052 17.9154C35.6008 17.8661 35.4867 17.8405 35.3712 17.8406H35.3048L34.7079 17.8914L35.0306 17.3867C35.0998 17.2797 35.1419 17.1575 35.153 17.0306C35.1642 16.9036 35.1442 16.7759 35.0947 16.6585Z" fill="#FF5C00"/>
<path d="M17.064 14.4407C16.9686 14.3302 16.8442 14.2487 16.7049 14.2054C16.5656 14.162 16.4169 14.1586 16.2757 14.1954L14.5616 14.6422L13.2226 13.4829C13.1122 13.3873 12.9772 13.3245 12.833 13.3018C12.6887 13.279 12.541 13.2971 12.4065 13.3541C12.2721 13.411 12.1563 13.5045 12.0722 13.6239C11.9882 13.7434 11.9393 13.8839 11.9312 14.0297L11.8265 15.7977L10.3124 16.7118C10.1876 16.7871 10.0864 16.8959 10.0202 17.0258C9.95404 17.1557 9.92552 17.3015 9.93787 17.4467C9.95022 17.592 10.003 17.7309 10.0901 17.8477C10.1773 17.9645 10.2954 18.0547 10.4312 18.1079L12.0804 18.754L12.4827 20.4782C12.5158 20.6201 12.5878 20.75 12.6908 20.8531C12.7938 20.9563 12.9236 21.0285 13.0655 21.0618C13.1239 21.0755 13.1837 21.0823 13.2437 21.0821C13.359 21.082 13.4729 21.0564 13.5772 21.0071C13.6815 20.9578 13.7735 20.886 13.8468 20.7969L14.9718 19.429L16.7366 19.579C16.8818 19.5913 17.0276 19.5627 17.1574 19.4965C17.2873 19.4303 17.396 19.3291 17.4713 19.2044C17.5467 19.0796 17.5856 18.9363 17.5838 18.7906C17.5819 18.6448 17.5393 18.5025 17.4608 18.3797L16.5069 16.8875L17.1952 15.2555C17.2516 15.121 17.2692 14.9734 17.246 14.8293C17.2228 14.6853 17.1597 14.5507 17.064 14.4407ZM14.6929 17.8368C14.5666 17.826 14.4396 17.8461 14.3228 17.8954C14.206 17.9447 14.103 18.0216 14.0226 18.1196L13.6421 18.5821L13.5062 17.9993C13.4775 17.8757 13.4192 17.761 13.3363 17.6651C13.2534 17.5691 13.1484 17.4948 13.0304 17.4485L12.4726 17.2305L12.9858 16.918C13.0946 16.8523 13.1857 16.761 13.2511 16.6521C13.3166 16.5431 13.3545 16.4199 13.3616 16.293L13.3968 15.6954L13.8499 16.086C13.9456 16.1689 14.0601 16.2273 14.1834 16.2561C14.3067 16.285 14.4352 16.2834 14.5577 16.2516L15.1374 16.1L14.903 16.6524C14.8539 16.7691 14.8338 16.896 14.8445 17.0221C14.8553 17.1483 14.8965 17.2699 14.9648 17.3766L15.2874 17.8813L14.6929 17.8368Z" fill="#FF5C00"/>
<path d="M25 0.781259C21.2856 0.781926 17.6211 1.63698 14.2899 3.28028C10.9587 4.92358 8.05012 7.31109 5.78915 10.2582C3.52817 13.2052 1.97537 16.6329 1.25084 20.276C0.526309 23.9191 0.649468 27.6801 1.61079 31.268C2.57212 34.8559 4.34584 38.1746 6.79478 40.9674C9.24372 43.7602 12.3022 45.9523 15.7338 47.3742C19.1654 48.796 22.878 49.4095 26.5845 49.1672C30.2911 48.9248 33.8922 47.8331 37.1094 45.9766L36.3282 44.6234C31.4825 47.4427 25.7675 48.3765 20.2765 47.2462C14.7854 46.1159 9.90388 43.0008 6.56564 38.4969C3.22739 33.993 1.66682 28.4165 2.18245 22.8341C2.69808 17.2517 5.25372 12.0554 9.36047 8.23915C13.4672 4.42293 18.8368 2.25474 24.4419 2.14935C30.0471 2.04396 35.4943 4.00877 39.7417 7.66792C43.989 11.3271 46.7381 16.4237 47.4632 21.9827C48.1883 27.5418 46.8385 33.173 43.6719 37.7992L41.3188 35.8406C41.2116 35.7515 41.0826 35.6927 40.945 35.6703C40.8075 35.6479 40.6664 35.6627 40.5365 35.7131C40.4066 35.7636 40.2926 35.8479 40.2062 35.9572C40.1198 36.0666 40.0643 36.1971 40.0454 36.3352L39.0493 43.6383C39.0316 43.7693 39.0474 43.9026 39.0952 44.0258C39.1431 44.149 39.2214 44.258 39.3229 44.3427C39.4243 44.4274 39.5456 44.485 39.6754 44.51C39.8052 44.5351 39.9392 44.5268 40.0649 44.4859L47.0657 42.1805C47.198 42.1367 47.3162 42.0584 47.4081 41.9536C47.4999 41.8488 47.5621 41.7213 47.588 41.5843C47.614 41.4474 47.6029 41.306 47.5558 41.1748C47.5088 41.0437 47.4275 40.9275 47.3204 40.8383L44.8743 38.8024C47.4019 35.1732 48.8865 30.9206 49.1665 26.5068C49.4465 22.093 48.5113 17.6868 46.4625 13.7673C44.4137 9.84783 41.3297 6.5649 37.5458 4.27539C33.7618 1.98588 29.4227 0.777382 25 0.781259ZM45.2415 41.1375L40.7672 42.6109L41.4063 37.943L45.2415 41.1375Z" fill="#FF5C00"/>
</g>
<defs>
<clipPath id="clip0_261_221">
<rect width="50" height="50" fill="white"/>
</clipPath>
</defs>
</svg>
