<svg width="50" height="50" viewBox="0 0 50 50" fill="none" xmlns="http://www.w3.org/2000/svg">
<g clip-path="url(#clip0_66_580)">
<path d="M46.0559 6.20917C43.4264 3.41574 39.7935 1.78322 35.9588 1.67175C32.124 1.56029 28.4024 2.97903 25.6151 5.615L24.9826 6.2125C19.5046 0.402467 10.3539 0.133278 4.54383 5.61125C-1.26621 11.0892 -1.5354 20.24 3.94258 26.05L5.36674 27.5592C4.7654 28.9515 4.95758 30.5594 5.8701 31.7707C6.78262 32.9821 8.27508 33.6105 9.77924 33.4167C9.52458 34.7422 9.92259 36.1093 10.8489 37.0909C11.7753 38.0726 13.1171 38.5491 14.4551 38.3717C14.2004 39.6969 14.5983 41.0638 15.5245 42.0454C16.4507 43.0269 17.7923 43.5033 19.1301 43.3258C18.7986 45.1257 19.6614 46.9348 21.2686 47.8102C22.8759 48.6856 24.8636 48.429 26.1959 47.1742C30.9517 42.6842 30.8026 42.9083 31.2517 42.1517C32.6428 42.8361 34.2974 42.7004 35.5583 41.7984C36.8192 40.8964 37.482 39.3742 37.2834 37.8367C38.6087 38.0851 39.9727 37.6839 40.9525 36.7577C41.9323 35.8315 42.4095 34.4921 42.2359 33.155C44.0464 33.4876 45.8643 32.6118 46.7326 30.9887C47.601 29.3656 47.3207 27.3674 46.0392 26.0458C51.316 20.4889 51.3233 11.775 46.0559 6.20917ZM7.38841 31C6.41479 29.9655 6.46175 28.3383 7.49341 27.3617L11.8267 23.27C12.863 22.3129 14.4765 22.3684 15.4445 23.3944C16.4126 24.4204 16.3741 26.0345 15.3584 27.0133L11.0251 31.105C9.99133 32.0789 8.36424 32.0319 7.38841 31ZM12.0642 35.955C11.0897 34.9209 11.1367 33.2929 12.1692 32.3167L16.5026 28.225C17.536 27.25 19.1642 27.2974 20.1392 28.3308C21.1143 29.3643 21.0669 30.9925 20.0334 31.9675L15.7001 36.06C14.6651 37.0318 13.039 36.9829 12.0642 35.9508V35.955ZM16.7392 40.9092C15.7659 39.8747 15.8133 38.2478 16.8451 37.2717L21.1784 33.18C22.2185 32.2669 23.7945 32.3403 24.7452 33.3462C25.6959 34.352 25.6803 35.9297 24.7101 36.9167L20.3767 41.0083C19.3437 41.9842 17.7152 41.9379 16.7392 40.905V40.9092ZM25.0517 45.9692C24.3832 46.6 23.4289 46.8263 22.5483 46.5628C21.6677 46.2993 20.9945 45.586 20.7824 44.6916C20.5704 43.7971 20.8515 42.8575 21.5201 42.2267L25.8534 38.1342C26.8896 37.1771 28.5032 37.2326 29.4712 38.2586C30.4392 39.2846 30.4008 40.8987 29.3851 41.8775L25.0517 45.9692ZM44.7626 30.8717C44.2673 31.3414 43.6052 31.5944 42.9228 31.5747C42.2405 31.555 41.5941 31.2642 41.1267 30.7667L30.0217 19C29.7058 18.6652 29.1782 18.6499 28.8434 18.9658C28.5086 19.2818 28.4933 19.8093 28.8092 20.1442L39.9167 31.91C40.5478 32.5784 40.7743 33.5326 40.5109 34.4133C40.2476 35.294 39.5345 35.9673 38.6401 36.1796C37.7458 36.3919 36.8061 36.1109 36.1751 35.4425L25.0684 23.675C24.864 23.4584 24.5596 23.3673 24.2698 23.436C23.9801 23.5047 23.749 23.7228 23.6636 24.0081C23.5782 24.2934 23.6515 24.6026 23.8559 24.8192L34.9592 36.5833C35.836 37.5116 35.8983 38.9428 35.1055 39.9437C34.3127 40.9447 32.9053 41.2118 31.8009 40.5708C31.9738 39.3804 31.6288 38.1729 30.8531 37.2535C30.0774 36.3341 28.9451 35.7908 27.7426 35.7608C26.8259 35.7367 27.1592 36.0833 27.1826 35.1667C27.2158 34.0425 26.8007 32.9513 26.0289 32.1334C25.2571 31.3154 24.1917 30.8379 23.0676 30.8058C22.1509 30.7767 22.4801 31.1392 22.5076 30.2117C22.5403 29.0875 22.125 27.9964 21.3531 27.1786C20.5812 26.3607 19.5159 25.8831 18.3917 25.8508C17.4692 25.825 17.8042 26.1917 17.8317 25.2567C17.8767 23.5448 16.8885 21.9736 15.3259 21.2727C13.7634 20.5719 11.9328 20.8788 10.6842 22.0508C4.72591 27.675 6.78174 25.7367 6.33758 26.1558L5.15591 24.9058C0.310071 19.7657 0.548666 11.6704 5.68883 6.82459C10.829 1.97875 18.9242 2.21734 23.7701 7.3575L16.9451 13.8025C16.2979 14.4231 15.917 15.2707 15.8826 16.1667C15.7992 19.5892 20.8901 21.7442 24.0009 18.8L30.2209 12.93C30.3816 12.7781 30.596 12.6963 30.817 12.7025C31.038 12.7088 31.2474 12.8026 31.3992 12.9633C33.0342 14.6958 43.2992 25.5742 44.8676 27.235C45.3361 27.7311 45.5883 28.393 45.5686 29.0751C45.5489 29.7572 45.259 30.4035 44.7626 30.8717ZM44.9051 24.8467L32.6109 11.8192C32.1557 11.337 31.5277 11.0554 30.8649 11.0364C30.2021 11.0173 29.5589 11.2623 29.0767 11.7175L22.8559 17.5892C22.1952 18.2128 21.3134 18.5476 20.4053 18.5196C19.4973 18.4916 18.6377 18.1031 18.0167 17.44C17.7041 17.1085 17.5362 16.6663 17.5501 16.2109C17.564 15.7554 17.7586 15.3243 18.0909 15.0125L26.7576 6.82667C31.7768 2.07508 39.6626 2.16916 44.567 7.03915C49.4715 11.9091 49.6212 19.7941 44.9051 24.8467Z" fill="#FF5C00"/>
</g>
<defs>
<clipPath id="clip0_66_580">
<rect width="50" height="50" fill="white"/>
</clipPath>
</defs>
</svg>
